<svg width="200" height="200" viewBox="0 0 200 200" fill="none" xmlns="http://www.w3.org/2000/svg">
<path d="M85.7237 99.2632C92.5544 102.207 95.9685 105.396 97.1806 106.716C96.9975 118.409 98.0484 128.892 98.8935 135.32C82.4539 134.886 68.8378 123.222 65.5323 107.751C75.3989 99.524 85.497 99.2632 85.6724 99.2632H85.7237Z" fill="#1A2424"/>
<path d="M106.6 101.176C110.227 101.221 122.5 102.134 132.759 112.138C132.796 112.174 132.832 112.21 132.877 112.24C128.55 124.258 117.764 133.218 104.667 135.002C103.973 129.702 103.105 121.265 102.973 111.666C102.973 111.666 102.973 111.666 102.973 111.659C103.061 110.542 103.579 106.215 106.6 101.176Z" fill="#1A2424"/>
<path d="M131.036 84.5332C133.525 89.3099 134.926 94.7328 134.926 100.481C134.926 102.351 134.78 104.193 134.495 105.983C125.863 98.6474 116.566 96.3867 110.794 95.7257C114.947 91.4128 121.31 87.2074 131.036 84.5332Z" fill="#1A2424"/>
<path d="M65.3574 94.0864C68.9189 94.5226 72.1227 95.1019 74.9977 95.7839C71.9033 96.9072 68.3781 98.5892 64.7743 101.126C64.759 100.908 64.7591 100.698 64.7591 100.481C64.7591 98.2991 64.9633 96.1602 65.3574 94.0864Z" fill="#1A2424"/>
<path d="M72.9388 78.117C92.5035 82.9023 96.888 95.095 97.5805 97.5605C97.5297 98.154 97.4934 98.7484 97.457 99.3428C92.3994 95.5655 82.9716 90.6078 66.8829 88.5263C68.2907 84.6993 70.3562 81.1837 72.9388 78.117Z" fill="#1A2424"/>
<path d="M110.526 67.2802C113 68.0633 115.349 69.1074 117.552 70.3898C116.626 77.3986 113.839 84.4016 112.97 86.4606H112.964V86.4684C108.745 89.3464 105.724 92.4786 103.565 95.3777C104.47 85.5185 106.52 75.5733 110.526 67.2802Z" fill="#1A2424"/>
<path d="M99.8436 65.6274C101.529 65.6274 103.178 65.7509 104.799 65.9749C101.792 72.5721 99.8734 79.9586 98.7207 87.4695C97.1662 85.367 95.1006 83.1271 92.3858 80.9816C92.2985 80.756 92.1826 80.5455 92.0293 80.3435C91.9852 80.2854 88.4973 75.4134 91.1095 66.7144H91.1168C93.9121 66.0037 96.8305 65.6275 99.8436 65.6274Z" fill="#1A2424"/>
<path d="M122.769 74.1093C124.652 75.726 126.36 77.5307 127.862 79.5103C125.243 80.3001 122.857 81.1993 120.675 82.171C121.433 79.7998 122.207 77.0236 122.769 74.1093Z" fill="#1A2424"/>
<path d="M84.7076 69.0344C84.2856 71.7819 84.35 74.1885 84.65 76.2109C82.5557 75.2039 80.228 74.2832 77.6445 73.4925C79.7965 71.7386 82.1683 70.2377 84.7076 69.0344Z" fill="#1A2424"/>
<path fill-rule="evenodd" clip-rule="evenodd" d="M90.385 24.5843C108.563 22.2874 126.383 27.0449 138.023 33.9175C149.662 40.7902 155.731 48.5363 159.473 52.9137C163.208 57.285 167.69 65.4445 167.703 65.4678C167.726 65.5149 175.578 81.6262 183 101.148C187.447 112.844 193.936 132.091 199.05 147.589C203.047 159.704 193.933 172.096 181.1 172.096C172.654 172.096 165.244 166.907 161.667 159.306C161.235 158.388 160.874 157.679 160.636 157.312C158.235 153.61 154.843 155.398 154.816 155.412C154.793 155.424 152.234 156.738 150.992 157.725C147.895 160.186 144.572 163.192 139.603 166.149C133.4 169.839 129.357 171.518 122.31 173.665C115.363 175.781 109.161 176.524 101.692 176.886C95.9136 177.167 93.6945 176.921 88.6391 176.225C81.3451 175.221 75.6049 173.246 68.7691 170.526C62.3779 167.983 59.8032 165.757 55.301 162.763C51.8037 160.437 50.5003 159.398 47.4024 156.568C44.1213 153.571 41.6235 150.63 39.0887 146.987C34.4331 140.297 32.5194 136.404 29.0291 129.147C17.4059 104.981 5.20212 65.9066 5.16839 65.7986L0.985091 53.3573C-3.09052 41.2373 5.98896 28.7142 18.8517 28.7142H19.8981C26.5317 28.7143 32.9885 32.0506 35.6974 38.0661C36.1944 39.1699 38.5142 45.0916 42.248 45.8933C43.6791 46.2004 45.4985 45.4466 46.5711 44.8198C49.3979 43.1678 58.0443 34.8258 67.2724 31.1091C76.0469 27.5752 81.1785 25.7476 90.385 24.5843ZM99.864 60.4298C77.5032 60.4299 59.3759 78.4384 59.3759 100.653C59.3761 122.867 77.5032 140.875 99.864 140.875C122.225 140.875 140.352 122.867 140.352 100.653C140.352 78.4384 122.225 60.4299 99.864 60.4298Z" fill="#1A2424"/>
</svg>
