<svg width="400" height="100" viewBox="0 0 400 100" fill="none" xmlns="http://www.w3.org/2000/svg">
<path d="M77.0586 73.2453L95.2638 25H108.257L126.391 72.6777L113.612 73.9548L110.113 63.7381H93.3362L89.9807 73.2453H77.0586ZM96.9058 53.5924H106.401L101.546 40.4669L96.9058 53.5924Z" fill="#1A2424"/>
<path d="M129.242 38.835H156.871L157.514 46.0009L143.521 63.0996H157.585L158.799 73.2453H129.242L127.672 66.5761L141.879 48.9807H130.456L129.242 38.835Z" fill="#1A2424"/>
<path d="M179.442 37.6289C183.012 37.6289 186.034 38.433 188.509 40.0412C190.984 41.6494 192.84 43.8015 194.078 46.4975C195.363 49.1936 196.005 52.1971 196.005 55.508V59.2683H174.944C175.42 60.7346 176.301 61.8935 177.586 62.7448C178.919 63.5489 180.656 63.951 182.798 63.951C186.082 63.951 189.247 63.1705 192.293 61.6097L195.934 70.3364C194.506 71.377 192.436 72.252 189.723 72.9615C187.057 73.671 184.321 74.0257 181.512 74.0257C177.467 74.0257 173.873 73.3399 170.732 71.9682C167.638 70.5965 165.211 68.5627 163.45 65.8666C161.689 63.1232 160.809 59.8596 160.809 56.0756C160.809 52.339 161.618 49.0753 163.236 46.2847C164.854 43.494 167.067 41.3656 169.875 39.8993C172.731 38.3857 175.92 37.6289 179.442 37.6289ZM179.085 47.9875C177.895 47.9875 176.824 48.4841 175.872 49.4774C174.968 50.4707 174.54 51.6059 174.587 52.8829H183.583C183.583 51.7005 183.202 50.5889 182.441 49.5483C181.679 48.5078 180.561 47.9875 179.085 47.9875Z" fill="#1A2424"/>
<path d="M259.916 51.0383V73.2453H246.923V52.2444C246.923 50.92 246.709 49.9031 246.28 49.1936C245.9 48.4841 244.995 48.1294 243.567 48.1294C242.949 48.1294 241.973 48.3422 240.64 48.7679C239.308 49.1936 238.094 49.6429 236.999 50.1159V73.2453H224.006V52.2444C224.006 50.92 223.792 49.9031 223.363 49.1936C222.982 48.4841 222.078 48.1294 220.65 48.1294C220.032 48.1294 219.032 48.3422 217.652 48.7679C216.319 49.1936 215.105 49.6429 214.011 50.1159V73.2453H201.017V38.835H208.728L211.012 42.3825C216.057 39.2607 220.65 37.6999 224.791 37.6999C229.36 37.6999 232.644 39.1188 234.643 41.9568C239.355 39.1188 243.71 37.6999 247.708 37.6999C255.847 37.6999 259.916 42.146 259.916 51.0383Z" fill="#1A2424"/>
<path d="M325.662 51.0383V73.2453H312.668V52.2444C312.668 50.92 312.454 49.9031 312.026 49.1936C311.645 48.4841 310.741 48.1294 309.313 48.1294C308.694 48.1294 307.719 48.3422 306.386 48.7679C305.053 49.1936 303.84 49.6429 302.745 50.1159V73.2453H289.751V52.2444C289.751 50.92 289.537 49.9031 289.109 49.1936C288.728 48.4841 287.824 48.1294 286.396 48.1294C285.777 48.1294 284.778 48.3422 283.397 48.7679C282.065 49.1936 280.851 49.6429 279.756 50.1159V73.2453H266.763V38.835H274.473L276.758 42.3825C281.803 39.2607 286.396 37.6999 290.537 37.6999C295.106 37.6999 298.39 39.1188 300.389 41.9568C305.101 39.1188 309.456 37.6999 313.454 37.6999C321.593 37.6999 325.662 42.146 325.662 51.0383Z" fill="#1A2424"/>
<path d="M348.929 64.0219C349.69 64.0219 350.761 63.8327 352.141 63.4543C353.522 63.0286 354.783 62.5556 355.925 62.0354V38.906H368.919V73.3162H362.636L358.924 69.7688C353.879 72.8905 349.167 74.4514 344.788 74.4514C340.6 74.4514 337.458 73.2453 335.364 70.833C333.27 68.3735 332.223 65.1335 332.223 61.113V38.906H345.216V59.9069C345.216 61.0894 345.502 62.0827 346.073 62.8867C346.644 63.6435 347.596 64.0219 348.929 64.0219Z" fill="#1A2424"/>
<path d="M400 49.1936C398.286 49.1936 396.406 49.5483 394.36 50.2578C392.313 50.9673 390.552 51.8897 389.077 53.0248V73.2453H376.083V38.906H382.58L385.721 43.092C387.387 41.9568 389.291 40.9635 391.433 40.1121C393.574 39.2607 395.55 38.835 397.358 38.835L400 49.1936Z" fill="#1A2424"/>
<path d="M27.5209 49.1834C29.7138 50.1288 30.8099 51.1532 31.199 51.5769C31.1402 55.3324 31.4776 58.699 31.7489 60.7638C26.4711 60.6242 22.0998 56.8781 21.0386 51.9095C24.2062 49.2671 27.4481 49.1834 27.5044 49.1834H27.5209Z" fill="#1A2424"/>
<path d="M34.223 49.7977C35.3874 49.812 39.3277 50.1053 42.6212 53.3182C42.6329 53.3298 42.6447 53.3415 42.6589 53.351C41.2698 57.2108 37.8072 60.0885 33.6023 60.6616C33.3797 58.9595 33.1011 56.2495 33.0586 53.1669C33.0586 53.1669 33.0586 53.1668 33.0586 53.1644C33.0869 52.8058 33.2532 51.416 34.223 49.7977Z" fill="#1A2424"/>
<path d="M42.0681 44.4525C42.867 45.9867 43.3168 47.7283 43.3168 49.5746C43.3168 50.1752 43.27 50.7666 43.1785 51.3416C40.4071 48.9856 37.4226 48.2595 35.5695 48.0472C36.9026 46.6621 38.9454 45.3114 42.0681 44.4525Z" fill="#1A2424"/>
<path d="M20.9824 47.5207C22.1258 47.6608 23.1544 47.8469 24.0774 48.0659C23.0839 48.4267 21.9522 48.9669 20.7952 49.7817C20.7903 49.7117 20.7903 49.6441 20.7903 49.5744C20.7903 48.8737 20.8559 48.1868 20.9824 47.5207Z" fill="#1A2424"/>
<path d="M23.4164 42.3919C29.6974 43.9287 31.1051 47.8447 31.3274 48.6365C31.3111 48.8271 31.2994 49.018 31.2877 49.2089C29.664 47.9958 26.6373 46.4035 21.4722 45.735C21.9242 44.5059 22.5873 43.3768 23.4164 42.3919Z" fill="#1A2424"/>
<path d="M35.4833 38.9115C36.2776 39.163 37.0319 39.4983 37.7391 39.9101C37.4417 42.1612 36.5471 44.4103 36.2682 45.0716H36.266V45.0741C34.9117 45.9984 33.9419 47.0044 33.2485 47.9355C33.5392 44.769 34.1973 41.5749 35.4833 38.9115Z" fill="#1A2424"/>
<path d="M32.0539 38.3806C32.5951 38.3806 33.1244 38.4203 33.6447 38.4922C32.6795 40.611 32.0635 42.9833 31.6934 45.3956C31.1944 44.7203 30.5312 44.001 29.6597 43.3119C29.6316 43.2394 29.5944 43.1718 29.5452 43.1069C29.5311 43.0883 28.4113 41.5236 29.2499 38.7297H29.2523C30.1497 38.5015 31.0866 38.3806 32.0539 38.3806Z" fill="#1A2424"/>
<path d="M39.414 41.1047C40.0184 41.624 40.5667 42.2036 41.0491 42.8394C40.2081 43.093 39.4423 43.3818 38.7416 43.6939C38.9851 42.9324 39.2336 42.0407 39.414 41.1047Z" fill="#1A2424"/>
<path d="M27.1946 39.4749C27.0592 40.3572 27.0798 41.1302 27.1762 41.7797C26.5038 41.4563 25.7565 41.1606 24.9271 40.9066C25.618 40.3433 26.3794 39.8613 27.1946 39.4749Z" fill="#1A2424"/>
<path fill-rule="evenodd" clip-rule="evenodd" d="M29.0173 25.1989C34.8532 24.4612 40.5743 25.9892 44.311 28.1964C48.0476 30.4037 49.9962 32.8915 51.1973 34.2974C52.3966 35.7013 53.8355 38.3219 53.8396 38.3294C53.847 38.3445 56.3677 43.5189 58.7506 49.7887C60.1783 53.5449 62.2615 59.7265 63.9032 64.7041C65.1864 68.5949 62.2604 72.5748 58.1406 72.5749C55.4292 72.5749 53.0501 70.9082 51.9018 68.4671C51.7632 68.1725 51.6473 67.9446 51.5709 67.8267C50.7999 66.6377 49.7111 67.212 49.7025 67.2165C49.695 67.2204 48.8733 67.6425 48.4748 67.9593C47.4805 68.7499 46.4135 69.7154 44.8182 70.6649C42.8268 71.8502 41.5289 72.3894 39.2665 73.0788C37.0363 73.7584 35.0451 73.9969 32.6472 74.1134C30.7922 74.2035 30.0798 74.1247 28.4568 73.9011C26.1151 73.5785 24.2723 72.9444 22.0777 72.0708C20.0259 71.254 19.1993 70.5391 17.7539 69.5773C16.6311 68.8303 16.2127 68.4968 15.2181 67.5878C14.1648 66.6252 13.3629 65.6807 12.5491 64.5108C11.0544 62.3622 10.4401 61.1118 9.31953 58.7811C5.58801 51.0197 1.6701 38.4703 1.65927 38.4356L0.316255 34.4399C-0.992184 30.5473 1.9227 26.5253 6.05217 26.5253H6.38813C8.51776 26.5253 10.5907 27.5968 11.4603 29.5288C11.6199 29.8833 12.3647 31.7852 13.5634 32.0426C14.0228 32.1413 14.6069 31.8992 14.9512 31.6979C15.8588 31.1673 18.6346 28.4881 21.5972 27.2945C24.4142 26.1595 26.0617 25.5725 29.0173 25.1989ZM32.0605 36.7113C24.8817 36.7114 19.0621 42.4951 19.0621 49.6297C19.0622 56.7642 24.8817 62.5478 32.0605 62.5478C39.2392 62.5478 45.0588 56.7642 45.0588 49.6297C45.0588 42.4951 39.2392 36.7114 32.0605 36.7113Z" fill="#1A2424"/>
</svg>
