<svg width="200" height="250" viewBox="0 0 200 250" fill="none" xmlns="http://www.w3.org/2000/svg">
<path d="M0 222.333L11.2746 192.454H19.3216L30.552 221.982L22.6377 222.773L20.4712 216.445H10.0808L8.00276 222.333H0ZM12.2915 210.162H18.172L15.1655 202.033L12.2915 210.162Z" fill="#1A2424"/>
<path d="M32.3178 201.023H49.4287L49.8266 205.461L41.1606 216.05H49.8708L50.6225 222.333H32.3178L31.3451 218.203L40.1437 207.306H33.0694L32.3178 201.023Z" fill="#1A2424"/>
<path d="M63.4069 200.276C65.6176 200.276 67.4894 200.774 69.0221 201.77C70.5549 202.766 71.7044 204.098 72.4708 205.768C73.2667 207.438 73.6646 209.298 73.6646 211.348V213.677H60.6214C60.9162 214.585 61.4615 215.303 62.2573 215.83C63.0827 216.328 64.1586 216.577 65.485 216.577C67.5188 216.577 69.479 216.094 71.3655 215.127L73.6204 220.532C72.7361 221.176 71.4539 221.718 69.7737 222.158C68.1231 222.597 66.4282 222.817 64.6891 222.817C62.1837 222.817 59.9582 222.392 58.0128 221.542C56.0968 220.693 54.5936 219.433 53.5029 217.764C52.4123 216.065 51.867 214.043 51.867 211.7C51.867 209.386 52.3681 207.365 53.3703 205.636C54.3725 203.908 55.7431 202.59 57.4822 201.682C59.2508 200.744 61.2257 200.276 63.4069 200.276ZM63.1858 206.691C62.4489 206.691 61.7857 206.998 61.1962 207.614C60.6362 208.229 60.3709 208.932 60.4003 209.723H65.9713C65.9713 208.99 65.7355 208.302 65.2639 207.658C64.7923 207.013 64.0996 206.691 63.1858 206.691Z" fill="#1A2424"/>
<path d="M113.245 208.58V222.333H105.198V209.327C105.198 208.507 105.066 207.877 104.8 207.438C104.565 206.998 104.004 206.779 103.12 206.779C102.737 206.779 102.133 206.911 101.307 207.174C100.482 207.438 99.7305 207.716 99.0525 208.009V222.333H91.0055V209.327C91.0055 208.507 90.8729 207.877 90.6076 207.438C90.3718 206.998 89.8117 206.779 88.9275 206.779C88.5443 206.779 87.9253 206.911 87.0705 207.174C86.2451 207.438 85.4935 207.716 84.8155 208.009V222.333H76.7686V201.023H81.5437L82.9586 203.22C86.083 201.286 88.9275 200.32 91.4919 200.32C94.3216 200.32 96.3554 201.198 97.5934 202.956C100.512 201.198 103.209 200.32 105.685 200.32C110.725 200.32 113.245 203.073 113.245 208.58Z" fill="#1A2424"/>
<path d="M153.962 208.58V222.333H145.915V209.327C145.915 208.507 145.782 207.877 145.517 207.438C145.281 206.998 144.721 206.779 143.837 206.779C143.454 206.779 142.85 206.911 142.024 207.174C141.199 207.438 140.447 207.716 139.769 208.009V222.333H131.722V209.327C131.722 208.507 131.59 207.877 131.324 207.438C131.089 206.998 130.528 206.779 129.644 206.779C129.261 206.779 128.642 206.911 127.787 207.174C126.962 207.438 126.21 207.716 125.532 208.009V222.333H117.485V201.023H122.26L123.675 203.22C126.8 201.286 129.644 200.32 132.209 200.32C135.038 200.32 137.072 201.198 138.31 202.956C141.228 201.198 143.925 200.32 146.401 200.32C151.442 200.32 153.962 203.073 153.962 208.58Z" fill="#1A2424"/>
<path d="M168.371 216.621C168.843 216.621 169.506 216.504 170.361 216.27C171.216 216.006 171.997 215.713 172.704 215.391V201.067H180.751V222.377H176.86L174.561 220.18C171.437 222.114 168.519 223.08 165.807 223.08C163.213 223.08 161.268 222.333 159.971 220.839C158.674 219.316 158.025 217.31 158.025 214.82V201.067H166.072V214.073C166.072 214.805 166.249 215.42 166.603 215.918C166.956 216.387 167.546 216.621 168.371 216.621Z" fill="#1A2424"/>
<path d="M200 207.438C198.939 207.438 197.775 207.658 196.507 208.097C195.24 208.536 194.149 209.108 193.235 209.811V222.333H185.188V201.067H189.212L191.157 203.659C192.189 202.956 193.368 202.341 194.694 201.814C196.021 201.286 197.244 201.023 198.364 201.023L200 207.438Z" fill="#1A2424"/>
<path d="M85.3775 100.989C92.1805 103.922 95.5809 107.1 96.788 108.415C96.6057 120.065 97.6524 130.51 98.494 136.915C82.1208 136.482 68.5598 124.861 65.2676 109.446C75.0944 101.249 85.1517 100.989 85.3264 100.989H85.3775Z" fill="#1A2424"/>
<path d="M106.169 102.895C109.782 102.94 122.006 103.849 132.223 113.817C132.259 113.853 132.296 113.889 132.34 113.918C128.03 125.893 117.289 134.82 104.244 136.598C103.553 131.318 102.689 122.911 102.557 113.347C102.557 113.347 102.557 113.347 102.557 113.34C102.645 112.227 103.161 107.915 106.169 102.895Z" fill="#1A2424"/>
<path d="M130.507 86.3128C132.986 91.0722 134.381 96.4753 134.381 102.203C134.381 104.066 134.236 105.901 133.952 107.685C125.354 100.376 116.095 98.1231 110.347 97.4646C114.482 93.1674 120.82 88.9773 130.507 86.3128Z" fill="#1A2424"/>
<path d="M65.0935 95.8313C68.6406 96.2658 71.8314 96.843 74.6948 97.5226C71.6128 98.6418 68.1019 100.318 64.5126 102.845C64.4975 102.628 64.4975 102.419 64.4975 102.202C64.4975 100.029 64.701 97.8975 65.0935 95.8313Z" fill="#1A2424"/>
<path d="M72.6442 79.92C92.1298 84.6878 96.4967 96.8362 97.1864 99.2927C97.1357 99.8841 97.0996 100.476 97.0633 101.069C92.0262 97.3049 82.6365 92.3653 66.6128 90.2914C68.0149 86.4783 70.0721 82.9755 72.6442 79.92Z" fill="#1A2424"/>
<path d="M110.079 69.1227C112.543 69.9029 114.883 70.9432 117.077 72.2209C116.155 79.2042 113.379 86.1817 112.514 88.2332H112.507V88.241C108.306 91.1085 105.297 94.2294 103.146 97.1179C104.048 87.2946 106.09 77.3856 110.079 69.1227Z" fill="#1A2424"/>
<path d="M99.4403 67.4759C101.119 67.4759 102.761 67.5989 104.375 67.8221C101.381 74.3953 99.47 81.7549 98.322 89.2384C96.7738 87.1436 94.7165 84.9118 92.0127 82.7741C91.9257 82.5494 91.8103 82.3396 91.6576 82.1383C91.6137 82.0805 88.1398 77.2262 90.7415 68.5589H90.7488C93.5328 67.8508 96.4394 67.4759 99.4403 67.4759Z" fill="#1A2424"/>
<path d="M122.273 75.9269C124.148 77.5377 125.849 79.3358 127.346 81.3082C124.737 82.0952 122.361 82.9911 120.187 83.9592C120.943 81.5967 121.714 78.8306 122.273 75.9269Z" fill="#1A2424"/>
<path d="M84.3655 70.8705C83.9451 73.6079 84.0093 76.0058 84.3081 78.0209C82.2222 77.0175 79.9039 76.1001 77.3309 75.3123C79.4742 73.5648 81.8364 72.0694 84.3655 70.8705Z" fill="#1A2424"/>
<path fill-rule="evenodd" clip-rule="evenodd" d="M90.0199 26.5821C108.124 24.2936 125.873 29.0338 137.465 35.8814C149.057 42.7291 155.102 50.447 158.828 54.8085C162.549 59.1638 167.013 67.2937 167.026 67.3168C167.049 67.3638 174.869 83.4164 182.261 102.867C186.69 114.52 193.153 133.697 198.246 149.139C202.227 161.21 193.149 173.557 180.368 173.557C171.957 173.557 164.576 168.386 161.014 160.813C160.584 159.899 160.225 159.192 159.987 158.826C157.596 155.138 154.218 156.919 154.191 156.934C154.168 156.945 151.619 158.255 150.382 159.238C147.298 161.69 143.988 164.686 139.039 167.631C132.861 171.309 128.834 172.981 121.816 175.12C114.897 177.228 108.72 177.968 101.281 178.33C95.5262 178.609 93.3161 178.365 88.2811 177.671C81.0165 176.67 75.2996 174.703 68.4913 171.993C62.1259 169.459 59.5616 167.241 55.0776 164.258C51.5944 161.94 50.2963 160.905 47.2109 158.085C43.9431 155.099 41.4554 152.169 38.9308 148.54C34.294 141.874 32.3881 137.995 28.9118 130.764C17.3356 106.686 5.18111 67.754 5.14752 67.6464L0.981112 55.2505C-3.07803 43.1746 5.96477 30.697 18.7755 30.697H19.8178C26.4245 30.6972 32.8553 34.0213 35.5532 40.0149C36.0482 41.1147 38.3587 47.0148 42.0773 47.8136C43.5027 48.1195 45.3147 47.3685 46.383 46.744C49.1984 45.098 57.8099 36.7864 67.0007 33.0832C75.7398 29.5622 80.8506 27.7413 90.0199 26.5821ZM99.4607 62.2972C77.1901 62.2973 59.1361 80.2403 59.1361 102.374C59.1362 124.507 77.1902 142.45 99.4607 142.45C121.731 142.45 139.785 124.507 139.785 102.374C139.785 80.2403 121.731 62.2973 99.4607 62.2972Z" fill="#1A2424"/>
</svg>
