<svg width="64" height="64" viewBox="0 0 64 64" fill="none" xmlns="http://www.w3.org/2000/svg">
<circle cx="32" cy="32" r="32" fill="#1A2424"/>
<mask id="mask0_1355_56" style="mask-type:alpha" maskUnits="userSpaceOnUse" x="0" y="0" width="64" height="64">
<circle cx="32" cy="32" r="32" fill="#D9D9D9"/>
</mask>
<g mask="url(#mask0_1355_56)">
<path d="M26.7092 31.851C29.2359 32.9403 30.4988 34.1206 30.9471 34.6088C30.8794 38.9359 31.2681 42.8149 31.5807 45.1939C25.4997 45.0331 20.4631 40.7169 19.2404 34.992C22.8901 31.9475 26.6253 31.851 26.6902 31.851H26.7092Z" fill="#E5EBEB"/>
<path d="M34.4313 32.5588C35.7729 32.5754 40.3129 32.9132 44.1077 36.6152C44.1211 36.6286 44.1347 36.642 44.151 36.6529C42.5505 41.1002 38.561 44.4159 33.7162 45.0761C33.4597 43.115 33.1387 39.9926 33.0898 36.4408C33.0898 36.4408 33.0898 36.4407 33.0898 36.4379C33.1224 36.0247 33.3139 34.4234 34.4313 32.5588Z" fill="#E5EBEB"/>
<path d="M43.4704 26.4002C44.3909 28.1678 44.9091 30.1745 44.9092 32.3017C44.9092 32.9938 44.8551 33.6753 44.7498 34.3377C41.5566 31.6231 38.1178 30.7865 35.9828 30.5419C37.5187 28.946 39.8724 27.3898 43.4704 26.4002Z" fill="#E5EBEB"/>
<path d="M19.1757 29.9353C20.4931 30.0967 21.6782 30.3111 22.7417 30.5635C21.597 30.9792 20.2931 31.6016 18.96 32.5404C18.9544 32.4597 18.9544 32.3819 18.9544 32.3015C18.9544 31.4942 19.0299 30.7028 19.1757 29.9353Z" fill="#E5EBEB"/>
<path d="M21.9801 24.0259C29.217 25.7967 30.8389 30.3086 31.095 31.2209C31.0762 31.4406 31.0628 31.6605 31.0493 31.8805C29.1786 30.4827 25.6912 28.6481 19.74 27.8778C20.2607 26.4617 21.0248 25.1607 21.9801 24.0259Z" fill="#E5EBEB"/>
<path d="M35.8834 20.0158C36.7986 20.3055 37.6677 20.6919 38.4825 21.1664C38.1398 23.7601 37.1091 26.3515 36.7878 27.1134H36.7852V27.1163C35.2249 28.1813 34.1074 29.3404 33.3086 30.4132C33.6434 26.7648 34.4018 23.0846 35.8834 20.0158Z" fill="#E5EBEB"/>
<path d="M31.9322 19.4042C32.5557 19.4042 33.1656 19.4498 33.765 19.5327C32.6529 21.974 31.9432 24.7074 31.5168 27.4868C30.9418 26.7087 30.1777 25.8799 29.1735 25.0859C29.1412 25.0025 29.0984 24.9245 29.0416 24.8498C29.0253 24.8283 27.7351 23.0254 28.7014 19.8064H28.7041C29.7381 19.5434 30.8176 19.4042 31.9322 19.4042Z" fill="#E5EBEB"/>
<path d="M40.4124 22.5429C41.1087 23.1411 41.7405 23.8089 42.2963 24.5415C41.3272 24.8337 40.4449 25.1665 39.6376 25.5261C39.9182 24.6486 40.2045 23.6213 40.4124 22.5429Z" fill="#E5EBEB"/>
<path d="M26.3333 20.6649C26.1772 21.6816 26.2011 22.5721 26.312 23.3206C25.5373 22.9479 24.6763 22.6072 23.7207 22.3146C24.5167 21.6656 25.3941 21.1102 26.3333 20.6649Z" fill="#E5EBEB"/>
<path fill-rule="evenodd" clip-rule="evenodd" d="M28.4334 4.21621C35.1574 3.36625 41.7492 5.12676 46.0546 7.66996C50.3599 10.2132 52.605 13.0796 53.9889 14.6995C55.3708 16.317 57.0286 19.3365 57.0333 19.3451C57.0418 19.3625 59.9462 25.3245 62.6918 32.5485C64.3367 36.8764 66.737 43.9988 68.6285 49.7339C70.107 54.2168 66.7357 58.8025 61.9889 58.8026C58.8648 58.8026 56.1237 56.8823 54.8006 54.0696C54.641 53.7301 54.5074 53.4676 54.4194 53.3318C53.531 51.9618 52.2765 52.6235 52.2666 52.6287C52.258 52.6332 51.3113 53.1195 50.8521 53.4846C49.7065 54.3954 48.477 55.5079 46.639 56.6019C44.3445 57.9676 42.8491 58.5889 40.2424 59.3832C37.6728 60.1662 35.3785 60.4411 32.6157 60.5753C30.4784 60.6791 29.6576 60.5883 27.7876 60.3307C25.0895 59.959 22.9663 59.2283 20.4377 58.2218C18.0736 57.2807 17.1212 56.4569 15.4558 55.3489C14.1622 54.4881 13.6801 54.1038 12.5341 53.0566C11.3205 51.9473 10.3966 50.8591 9.4589 49.5112C7.73679 47.0356 7.02894 45.5949 5.73785 42.9095C1.43843 33.9668 -3.07574 19.5074 -3.08821 19.4675L-4.63561 14.8636C-6.14318 10.3786 -2.78468 5.74447 1.97323 5.74447H2.36033C4.81407 5.74453 7.20245 6.9791 8.20448 9.20515C8.38832 9.61359 9.24642 11.8049 10.6275 12.1016C11.1569 12.2152 11.8299 11.9363 12.2266 11.7043C13.2723 11.093 16.4706 8.00605 19.8841 6.63071C23.1298 5.32299 25.0279 4.6467 28.4334 4.21621ZM31.9397 17.4808C23.6684 17.4808 16.9632 24.1448 16.9632 32.3652C16.9632 40.5856 23.6685 47.2495 31.9397 47.2495C40.211 47.2495 46.9162 40.5856 46.9163 32.3652C46.9163 24.1448 40.211 17.4808 31.9397 17.4808Z" fill="#E5EBEB"/>
</g>
</svg>
