<svg width="64" height="64" viewBox="0 0 64 64" fill="none" xmlns="http://www.w3.org/2000/svg">
<g clip-path="url(#clip0_1355_56)">
<rect width="64" height="64" fill="white"/>
<path d="M13.6367 1.13761C18.7969 -0.100251 32.0069 0.0372956 32.0069 0.0372956C32.0069 0.0372956 40.8829 -0.213884 47.2123 0.587459C57.5326 1.8941 61.7984 5.47016 63.0368 14.9605C63.7816 20.6684 64 32.0156 64 32.0156C64 32.0156 64 41.0932 63.0368 48.7955C62.0735 56.4978 59.0462 60.7582 51.134 62.6872C45.0648 64.1667 32.0069 63.9938 32.0069 63.9938C32.0069 63.9938 17.9026 63.7636 14.8759 63.1685C7.16942 61.6533 2.49088 58.9048 0.839255 48.8643C-0.174275 42.7029 0.0137747 32.0156 0.0137747 32.0156C0.0137747 32.0156 0.305249 18.6455 0.908248 15.0292C2.02055 8.3585 3.72914 3.5143 13.6367 1.13761Z" fill="#1A2424"/>
<path d="M29.6883 13.8935C34.002 13.3449 38.2309 14.4814 40.993 16.123C43.7552 17.7648 45.196 19.6154 46.0838 20.6611C46.9716 21.7068 48.0369 23.6601 48.0369 23.6601C48.0519 23.691 49.9099 27.5322 51.6668 32.1836C52.7222 34.9775 54.2629 39.5751 55.4764 43.2773C56.4248 46.1711 54.2618 49.1316 51.2166 49.1318C49.2123 49.1318 47.4531 47.8918 46.6043 46.0761C46.5019 45.857 46.4167 45.6873 46.3602 45.5996C45.788 44.7117 44.9784 45.1455 44.9784 45.1455C44.9664 45.1517 44.3641 45.4638 44.0711 45.6982C43.3361 46.2862 42.5473 47.0046 41.368 47.7109C39.8961 48.5924 38.9368 48.9931 37.2645 49.5058C35.6159 50.0113 34.1435 50.1887 32.3709 50.2754C31.0002 50.3423 30.4736 50.2844 29.2743 50.1181C27.5433 49.8782 26.1806 49.4065 24.5584 48.7568C23.0418 48.1493 22.4305 47.6176 21.3621 46.9023C20.5322 46.3467 20.2233 46.0979 19.4881 45.4218C18.7095 44.7058 18.116 44.0039 17.5145 43.1338C16.4097 41.5357 15.956 40.6054 15.1278 38.872C12.3739 33.1085 9.48197 23.7949 9.46468 23.7392L8.48519 20.8056C7.51187 17.8913 9.68106 14.8798 12.7537 14.8798H13.7176C15.1098 14.8799 16.3541 15.7204 16.9227 16.9912C17.0406 17.2548 17.3784 18.7929 18.2645 18.9843C18.6041 19.0577 19.0363 18.8772 19.2909 18.7275C19.9619 18.3326 22.0133 16.3399 24.203 15.4521C26.2853 14.6079 27.5035 14.1714 29.6883 13.8935ZM31.9383 22.456C26.6319 22.456 22.3292 26.758 22.3289 32.0644C22.3289 37.371 26.6317 41.6738 31.9383 41.6738C37.2447 41.6735 41.5467 37.3709 41.5467 32.0644C41.5464 26.7582 37.2445 22.4563 31.9383 22.456Z" fill="#E5EBEB"/>
<path d="M34.4704 24.0928C35.0575 24.2798 35.6151 24.5293 36.1378 24.8356C35.918 26.5099 35.2566 28.1829 35.0505 28.6746H35.0488V28.6765C34.0477 29.364 33.3309 30.1122 32.8184 30.8048C33.0332 28.4496 33.5197 26.0738 34.4704 24.0928Z" fill="#E5EBEB"/>
<path d="M38.5846 27.0143C37.9629 27.2029 37.3969 27.4178 36.8789 27.6499C37.0589 27.0835 37.2426 26.4203 37.3759 25.7241C37.8227 26.1103 38.228 26.5414 38.5846 27.0143Z" fill="#E5EBEB"/>
<path d="M39.7743 34.8328C38.7474 37.7037 36.1879 39.8441 33.0796 40.2703C32.9151 39.0043 32.7091 36.9887 32.6777 34.6958C32.6777 34.6958 32.6777 34.6958 32.6777 34.694C32.6987 34.4273 32.8216 33.3936 33.5384 32.1899C34.3991 32.2006 37.3119 32.4186 39.7465 34.8084C39.7552 34.8171 39.7638 34.8257 39.7743 34.8328Z" fill="#E5EBEB"/>
<path d="M40.26 32.0239C40.26 32.4707 40.2254 32.9106 40.1578 33.3382C38.1091 31.5858 35.903 31.0457 34.5332 30.8878C35.5186 29.8576 37.0286 28.8531 39.3369 28.2142C39.9275 29.3553 40.26 30.6507 40.26 32.0239Z" fill="#E5EBEB"/>
<path d="M28.3265 26.2261C27.8295 25.9856 27.2771 25.7657 26.6641 25.5768C27.1748 25.1579 27.7376 24.7992 28.3402 24.5118C28.24 25.1681 28.2553 25.743 28.3265 26.2261Z" fill="#E5EBEB"/>
<path d="M31.2998 33.5133C31.0121 33.1981 30.2019 32.4361 28.5809 31.7329H28.5686C28.527 31.7329 26.1306 31.7953 23.7891 33.7607C24.5735 37.4563 27.8049 40.2426 31.7063 40.3463C31.5057 38.8106 31.2563 36.3066 31.2998 33.5133ZM25.5469 26.6816C24.934 27.4141 24.4438 28.2539 24.1097 29.1681C27.9278 29.6654 30.1651 30.8497 31.3653 31.752C31.374 31.61 31.3826 31.468 31.3947 31.3262C31.2304 30.7373 30.1899 27.8247 25.5469 26.6816ZM31.9318 23.698C31.2167 23.698 30.5242 23.7879 29.8608 23.9577H29.859C29.2391 26.0357 30.0668 27.1995 30.0772 27.2134C30.1136 27.2617 30.1412 27.312 30.1619 27.3659C30.8062 27.8784 31.2963 28.4134 31.6652 28.9157C31.9388 27.1215 32.3942 25.357 33.1076 23.7811C32.7231 23.7276 32.3318 23.698 31.9318 23.698Z" fill="#E5EBEB"/>
<path d="M26.0372 30.9018C25.3029 31.1701 24.4663 31.572 23.611 32.178C23.6074 32.126 23.6074 32.0757 23.6074 32.0238C23.6074 31.5026 23.6559 30.9917 23.7494 30.4963C24.5946 30.6005 25.355 30.7389 26.0372 30.9018Z" fill="#E5EBEB"/>
</g>
<defs>
<clipPath id="clip0_1355_56">
<rect width="64" height="64" fill="white"/>
</clipPath>
</defs>
</svg>
